<svg width="16" height="16" viewBox="0 0 16 16" fill="none" xmlns="http://www.w3.org/2000/svg">
<path fill-rule="evenodd" clip-rule="evenodd" d="M9.22637 5.58674L7.99969 1.79756L6.77302 5.58673C6.61275
 6.08179 6.1517 6.41714 5.63135 6.41714L1.65456 6.41714L4.87563 8.76597C5.29467 9.07154 5.47 9.61174 
 5.31026 10.1052L4.0813 13.9014L7.29266 11.5596C7.71396 11.2524 8.28543 11.2524 8.70673 11.5596L11.9181
  13.9014L10.6891 10.1052C10.5294 9.61174 10.7047 9.07154 11.1238 8.76597L14.3448 6.41714H10.368C9.84769
   6.41714 9.38664 6.08179 9.22637 5.58674ZM8.76081 1.55116C8.52185 0.813024 7.47754 0.813024 7.23858
    1.55116L6.01191 5.34034C5.95848 5.50536 5.8048 5.61714 5.63135 5.61714H1.65456C0.880293 5.61714
     0.557605 6.60734 1.18321 7.06353L4.40427 9.41236C4.54395 9.51422 4.60239 9.69428 4.54915
      9.85875L3.32019 13.655C3.08141 14.3926 3.92626 15.0046 4.55265 14.5478L7.76402 12.206C7.90445
       12.1036 8.09494 12.1036 8.23537 12.206L11.4467 14.5478C12.0731 15.0046 12.918 14.3926 12.6792
        13.655L11.4502 9.85875C11.397 9.69428 11.4554 9.51422 11.5951 9.41236L14.8162 7.06353C15.4418
         6.60734 15.1191 5.61714 14.3448 5.61714H10.368C10.1946 5.61714 10.0409 5.50536 9.98748
          5.34034L8.76081 1.55116Z" fill="#ABBED1"/>
</svg>
