<svg width="14" height="14" viewBox="0 0 14 14" fill="none" xmlns="http://www.w3.org/2000/svg">
<path d="M3.24967 0.333496C3.36018 0.333496 3.46616 0.377395 3.5443 0.455535C3.62244 0.533675 3.66634 0.639656 3.66634 0.750163V1.16683H10.333V0.750163C10.333 0.639656 10.3769 0.533675 10.455 0.455535C10.5332 0.377395 10.6392 0.333496 10.7497 0.333496C10.8602 0.333496 10.9662 0.377395 11.0443 0.455535C11.1224 0.533675 11.1663 0.639656 11.1663 0.750163V1.16683H11.9997C12.4417 1.16683 12.8656 1.34242 13.1782 1.65498C13.4907 1.96755 13.6663 2.39147 13.6663 2.8335V12.0002C13.6663 12.4422 13.4907 12.8661 13.1782 13.1787C12.8656 13.4912 12.4417 13.6668 11.9997 13.6668H1.99967C1.55765 13.6668 1.13372 13.4912 0.821163 13.1787C0.508603 12.8661 0.333008 12.4422 0.333008 12.0002V2.8335C0.333008 2.39147 0.508603 1.96755 0.821163 1.65498C1.13372 1.34242 1.55765 1.16683 1.99967 1.16683H2.83301V0.750163C2.83301 0.639656 2.87691 0.533675 2.95505 0.455535C3.03319 0.377395 3.13917 0.333496 3.24967 0.333496V0.333496ZM1.99967 2.00016C1.77866 2.00016 1.5667 2.08796 1.41042 2.24424C1.25414 2.40052 1.16634 2.61248 1.16634 2.8335V12.0002C1.16634 12.2212 1.25414 12.4331 1.41042 12.5894C1.5667 12.7457 1.77866 12.8335 1.99967 12.8335H11.9997C12.2207 12.8335 12.4327 12.7457 12.5889 12.5894C12.7452 12.4331 12.833 12.2212 12.833 12.0002V2.8335C12.833 2.61248 12.7452 2.40052 12.5889 2.24424C12.4327 2.08796 12.2207 2.00016 11.9997 2.00016H1.99967Z" fill="#A6A6A6"/>
<path d="M2.41602 3.66667C2.41602 3.55616 2.45991 3.45018 2.53805 3.37204C2.61619 3.2939 2.72218 3.25 2.83268 3.25H11.166C11.2765 3.25 11.3825 3.2939 11.4606 3.37204C11.5388 3.45018 11.5827 3.55616 11.5827 3.66667V4.5C11.5827 4.61051 11.5388 4.71649 11.4606 4.79463C11.3825 4.87277 11.2765 4.91667 11.166 4.91667H2.83268C2.72218 4.91667 2.61619 4.87277 2.53805 4.79463C2.45991 4.71649 2.41602 4.61051 2.41602 4.5V3.66667Z" fill="#A6A6A6"/>
</svg>
